PathFileType	4	(X/Y/Z)	3_coords_data.trc
DataRate	CameraRate	NumFrames	NumMarkers	Units	OrigDataRate	OrigDataStartFrame	OrigNumFrames
30.0	30.0	8	21	m	30.0	1	64
Frame#	Time	THUMB_TIP	THUMB_IP	THUMB_MCP	THUMB_CMC	INDEX_TIP	INDEX_DIP	INDEX_PIP	INDEX_MCP	MIDDLE_TIP	MIDDLE_DIP	MIDDLE_PIP	MIDDLE_MCP	RING_TIP	RING_DIP	RING_PIP	RING_MCP	PINKY_TIP	PINKY_DIP	PINKY_PIP	PINKY_MCP	WRIST
X1	Y1	Z1	X2	Y2	Z2	X3	Y3	Z3	X4	Y4	Z4	X5	Y5	Z5	X6	Y6	Z6	X7	Y7	Z7	X8	Y8	Z8	X9	Y9	Z9	X10	Y10	Z10	X11	Y11	Z11	X12	Y12	Z12	X13	Y13	Z13	X14	Y14	Z14	X15	Y15	Z15	X16	Y16	Z16	X17	Y17	Z17	X18	Y18	Z18	X19	Y19	Z19	X20	Y20	Z20	X21	Y21	Z21
0	0.0	-0.15484100341796875	-0.07557129669189454	0.8974650268554687	-0.16208299255371095	-0.0651178970336914	0.9224810180664063	-0.16513699340820312	-0.06093539810180664	0.9506010131835938	-0.16975799560546875	-0.03986449813842773	0.9876729736328125	-0.1482570037841797	-0.03559389877319336	0.959760986328125	-0.13463499450683594	-0.030753299713134764	0.9456840209960937	-0.14004800415039062	-0.028658000946044922	0.923426025390625	-0.17362699890136718	-0.03651549911499023	0.9303740234375	-0.15858900451660157	-0.02365089988708496	0.9707160034179687	-0.1414810028076172	-0.01644960021972656	0.9596710205078125	-0.1414340057373047	-0.006909830093383789	0.9308560180664063	-0.184906005859375	-0.013243399620056152	0.9309219970703125	-0.16132699584960938	-0.012595000267028809	0.9770479736328125	-0.14808099365234376	-0.002045120000839233	0.9675709838867188	-0.14738099670410157	0.01085949993133545	0.942291015625	-0.18690800476074218	0.005027750015258789	0.93952099609375	-0.16186700439453125	-0.00023371399939060202	0.9789229736328126	-0.15310299682617187	0.012992600440979003	0.9706279907226563	-0.15603900146484376	0.023715299606323244	0.95556298828125	-0.19275799560546875	0.021349700927734375	0.9516920166015626	-0.18441900634765626	-0.01893079948425293	1.0072999877929687
1	0.03333333333333333	-0.15391900634765626	-0.07489080047607422	0.8978670043945313	-0.15995799255371093	-0.06418099975585938	0.9240289916992187	-0.1649720001220703	-0.05857759857177734	0.954822998046875	-0.16439799499511717	-0.03736970138549805	0.9858619995117187	-0.1502030029296875	-0.03680640029907226	0.9597960205078125	-0.13667999267578124	-0.031165399551391602	0.9465819702148438	-0.1399510040283203	-0.028352500915527344	0.9240570068359375	-0.17970199584960939	-0.03569319915771484	0.92960302734375	-0.15467100524902344	-0.023102399826049804	0.9687030029296875	-0.14194500732421875	-0.015285499572753906	0.957447021484375	-0.14186700439453126	-0.00751669979095459	0.9307830200195313	-0.18422700500488282	-0.01320240020751953	0.9308469848632812	-0.16127400207519532	-0.011367500305175781	0.9764390258789063	-0.14834800720214844	-0.001950119972229004	0.966656005859375	-0.1478249969482422	0.01006120014190674	0.9429600219726563	-0.18772200012207033	0.005683300018310547	0.9412239990234375	-0.16553700256347656	0.000407903999090194	0.9778289794921875	-0.15386000061035157	0.011989899635314941	0.9705700073242187	-0.15652799987792967	0.023016700744628905	0.95485302734375	-0.18854200744628907	0.02150979995727539	0.9533920288085938	-0.1866269989013672	-0.0166648006439209	1.0113800048828125
2	0.06666666666666667	-0.1534949951171875	-0.07440879821777344	0.8980980224609375	-0.15996000671386718	-0.06393560028076171	0.92410302734375	-0.1651540069580078	-0.0585098991394043	0.9549190063476563	-0.16539700317382813	-0.037382598876953124	0.985833984375	-0.1509949951171875	-0.03691439819335938	0.9599450073242187	-0.13705799865722657	-0.031112499237060547	0.946552978515625	-0.14046099853515626	-0.028383699417114258	0.9237830200195313	-0.17993800354003905	-0.03578710174560547	0.9296370239257813	-0.15512100219726563	-0.023933000564575195	0.9690919799804687	-0.1418249969482422	-0.01558530044555664	0.9576630249023438	-0.14222900390625	-0.007616799831390381	0.9307449951171874	-0.1846649932861328	-0.01331980037689209	0.9308389892578125	-0.1620679931640625	-0.011776599884033203	0.9760850219726562	-0.149406005859375	-0.0017422200441360469	0.96660400390625	-0.14813900756835938	0.010009699821472168	0.94289501953125	-0.18813499450683593	0.005613490104675293	0.9412030029296875	-0.16577000427246094	0.000283834993839263	0.9779660034179688	-0.153906005859375	0.011809900283813476	0.9705380249023438	-0.15596299743652345	0.023054000854492187	0.9548599853515625	-0.1887570037841797	0.021454399108886718	0.9532990112304688	-0.18641400146484374	-0.01679759979248047	1.0111599731445313
3	0.1	-0.15345100402832032	-0.07393119812011718	0.8979000244140625	-0.15973800659179688	-0.06363909912109375	0.9242329711914062	-0.16599000549316406	-0.05834310150146484	0.9550590209960937	-0.16553500366210938	-0.03727830123901367	0.9857379760742188	-0.1513470001220703	-0.03683420181274414	0.9604039916992188	-0.13756399536132813	-0.031411600112915036	0.947114990234375	-0.14058000183105468	-0.028640199661254882	0.9241530151367188	-0.1806230010986328	-0.03577450180053711	0.9298289794921875	-0.15515699768066407	-0.023357099533081054	0.9687880249023437	-0.14212399291992187	-0.015584400177001953	0.9577639770507812	-0.14247099304199218	-0.007647830009460449	0.9308380126953125	-0.1849239959716797	-0.013342300415039062	0.930968994140625	-0.16208099365234374	-0.011361900329589844	0.9761749877929687	-0.14890400695800782	-0.001933259963989257	0.9665139770507812	-0.14849800109863281	0.009997010231018066	0.942968017578125	-0.1883489990234375	0.0055713200569152835	0.941280029296875	-0.1660050048828125	3.0248399823904e-05	0.9781640014648437	-0.1540260009765625	0.011737500190734863	0.9705399780273437	-0.156843994140625	0.022909299850463867	0.9547890014648438	-0.18913999938964843	0.021415199279785156	0.9534420166015625	-0.1867239990234375	-0.0168617000579834	1.0111799926757812
4	0.13333333333333333	-0.153625	-0.073595703125	0.8978350219726563	-0.1601060028076172	-0.06349760055541992	0.9241199951171875	-0.16561599731445312	-0.058357398986816404	0.9550260009765625	-0.16607899475097657	-0.03719649887084961	0.9855239868164063	-0.15172300720214843	-0.036937198638916015	0.9603330078125	-0.13786500549316405	-0.03106209945678711	0.9466500244140625	-0.14096099853515626	-0.028463499069213867	0.923958984375	-0.18088699340820313	-0.03577069854736328	0.9298159790039062	-0.15648899841308594	-0.02356990051269531	0.9694080200195313	-0.14216099548339844	-0.01563409996032715	0.9578250122070312	-0.1427449951171875	-0.007612319946289062	0.9307230224609375	-0.18535299682617187	-0.013256500244140625	0.9309630126953125	-0.16273399353027343	-0.011351799964904786	0.976052978515625	-0.14967300415039062	-0.001750470042228698	0.96643701171875	-0.1485540008544922	0.009875309944152833	0.9428319702148438	-0.1887469940185547	0.005632989883422852	0.9412940063476563	-0.16174200439453126	0.00023460100591182704	0.979833984375	-0.1544239959716797	0.01186460018157959	0.9706370239257812	-0.15725399780273439	0.02304100036621094	0.9548189697265625	-0.18920500183105468	0.021547000885009767	0.9534110107421875	-0.1868070068359375	-0.016747400283813475	1.0111599731445313
5	0.16666666666666666	-0.15387600708007812	-0.07351480102539062	0.8978699951171875	-0.160343994140625	-0.06342509841918945	0.9240809936523438	-0.1661199951171875	-0.05839749908447266	0.954968017578125	-0.1677729949951172	-0.03724240112304687	0.9861580200195312	-0.15233299255371094	-0.03693140029907226	0.9602169799804687	-0.13785200500488282	-0.0313036994934082	0.9468939819335938	-0.14118600463867187	-0.02854290008544922	0.9240239868164063	-0.1806909942626953	-0.03569240188598633	0.929656005859375	-0.15566200256347656	-0.023333900451660155	0.9686900024414062	-0.14246200561523437	-0.0157391996383667	0.9579299926757813	-0.1429219970703125	-0.007674680233001709	0.9309219970703125	-0.18548599243164063	-0.013260199546813964	0.9309970092773437	-0.16287100219726564	-0.011713299751281738	0.9760880126953125	-0.15051600646972657	-0.00170601999759674	0.9667960205078125	-0.14889700317382812	0.009960630416870116	0.94285498046875	-0.18889300537109374	0.005672860145568848	0.9412919921875	-0.16663999938964844	0.000315930008888244	0.9779010009765625	-0.15456900024414064	0.011812399864196778	0.9705700073242187	-0.15749600219726562	0.02298419952392578	0.95485400390625	-0.18941600036621092	0.021513299942016603	0.9534310302734375	-0.18705299377441406	-0.016818000793457032	1.0111799926757812
6	0.2	-0.15426300048828126	-0.07336759948730469	0.8978569946289062	-0.1604499969482422	-0.06341790008544922	0.9240040283203125	-0.16592999267578126	-0.058339099884033206	0.954905029296875	-0.16739700317382813	-0.037203498840332035	0.9858519897460938	-0.1523070068359375	-0.03695700073242188	0.9597789916992188	-0.13800599670410157	-0.03120759963989258	0.9466920166015625	-0.14148399353027344	-0.028493600845336912	0.9237360229492187	-0.18125999450683594	-0.035716999053955076	0.9297659912109375	-0.155697998046875	-0.02248579978942871	0.9675460205078125	-0.14281500244140624	-0.015581000328063964	0.9576799926757813	-0.14312399291992187	-0.007723050117492676	0.9306859741210938	-0.18545100402832032	-0.013221400260925293	0.9309429931640625	-0.16278199768066406	-0.011204999923706055	0.9757559814453125	-0.1502030029296875	-0.001770539999008178	0.966531982421875	-0.14908799743652343	0.009824549674987793	0.9427919921875	-0.18894000244140624	0.005641310214996338	0.9412459716796875	-0.16635299682617188	0.00030246299505233705	0.9777919921875	-0.15507699584960938	0.011629500389099122	0.9706309814453125	-0.15778399658203124	0.022986900329589843	0.95485302734375	-0.18954800415039064	0.021478200912475588	0.9534329833984375	-0.1876439971923828	-0.016503299713134766	1.0115800170898437
7	0.23333333333333334	-0.15443899536132813	-0.07342849731445313	0.8977130126953125	-0.16058099365234374	-0.0634370994567871	0.9240430297851563	-0.16607099914550782	-0.058387001037597655	0.9549190063476563	-0.16789300537109375	-0.03733580017089844	0.9857899780273438	-0.15200599670410156	-0.03709040069580078	0.9601690063476562	-0.13808099365234375	-0.03142639923095703	0.9467249755859375	-0.14155900573730468	-0.028728099822998048	0.9237540283203125	-0.18191099548339842	-0.035886100769042965	0.9297990112304687	-0.15445700073242188	-0.02325189971923828	0.9680499877929688	-0.14339900207519532	-0.015647600173950196	0.9574929809570313	-0.14328999328613282	-0.007867030143737793	0.930760009765625	-0.18570899963378906	-0.013357099533081054	0.931010009765625	-0.16304899597167968	-0.011766400337219238	0.9760960083007812	-0.15056100463867186	-0.0018429299592971802	0.9665679931640625	-0.14931100463867186	0.009654669761657715	0.9427369995117187	-0.18908299255371094	0.0055494699478149416	0.9412639770507812	-0.16659100341796876	0.000242197006940841	0.977791015625	-0.15458099365234376	0.011737600326538086	0.9704769897460938	-0.1579709930419922	0.02283489990234375	0.9549119873046875	-0.18982400512695313	0.021390899658203125	0.9535079956054687	-0.18714700317382812	-0.01652829933166504	1.0114600219726562
